# xmcd
#
# Track frame offsets:
#        150
#        15222
#        29940
#        44562
#        60435
#        79905
#        93205
#        105585
#        124647
#        142412
#        160892
#        184642
#        201477
#
# Disc length: 2893 seconds
#
# Revision: 0
# Processed by: cddbd v1.5.1PL0 Copyright (c) Steve Scherf et al.
# Submitted via: ExactAudioCopy v0.95a5
#
DISCID=b20b4b0d
DTITLE=The Delgados - Universal Audio
DYEAR=2004
DGENRE=Rock
TTITLE0=Fought the Angels
TTITLE1=Is This All That I Came For?
TTITLE2=Everybody Come Down
TTITLE3=Come Undone
TTITLE4=Get Action!
TTITLE5=Sink or Swim
TTITLE6=Bits of Bone
TTITLE7=City Consumes Us
TTITLE8=Girls of Valour
TTITLE9=Keep on Breathing
TTITLE10=Now and Forever
TTITLE11=Don't Leave Clean (bonus track)
TTITLE12=I See Secrets (bonus track)
EXTD=
EXTT0=
EXTT1=
EXTT2=
EXTT3=
EXTT4=
EXTT5=
EXTT6=
EXTT7=
EXTT8=
EXTT9=
EXTT10=
EXTT11=
EXTT12=
PLAYORDER=
